<svg width="149" height="50" viewBox="0 0 149 50" fill="none" xmlns="http://www.w3.org/2000/svg">
<g clip-path="url(#clip0_6514_4058)">
<path d="M42.3773 30.8024C44.6315 29.505 45.0781 24.4203 44.0332 22.2175C43.5642 21.2339 42.9807 20.9134 42.662 20.7119L25.6163 9.92948L7.5781 18.6466L7.34418 22.2835L23.9446 32.7843L41.7552 23.385C42.251 24.8076 42.3398 27.3578 41.0067 28.3847L25.6593 37.0836L7.16635 25.3858L6.93075 29.0312L25.4233 40.7288L42.3773 30.8024Z" fill="black"/>
<g clip-path="url(#clip1_6514_4058)">
<path d="M19.8312 21.8947L18.5226 19.6297L19.8312 17.3647H22.4486L23.7572 19.6297L22.4486 21.8947H19.8312ZM20.1207 21.3914H22.1591L23.1721 19.6297L22.1591 17.8681H20.1207L19.1014 19.6297L20.1207 21.3914Z" fill="#FF004D"/>
</g>
<g clip-path="url(#clip2_6514_4058)">
<path d="M25.8712 20.3847L24.5625 18.1197L25.8712 15.8547H28.4885L29.7971 18.1197L28.4885 20.3847H25.8712ZM26.1606 19.8814H28.1991L29.212 18.1197L28.1991 16.3581H26.1606L25.1413 18.1197L26.1606 19.8814Z" fill="white"/>
</g>
<g clip-path="url(#clip3_6514_4058)">
<path d="M24.3613 26.4247L23.0526 24.1598L24.3613 21.8948H26.9786L28.2872 24.1598L26.9786 26.4247H24.3613Z" fill="white"/>
</g>
</g>
<path d="M65.9531 31H62.8594L59.4932 25.5859L58.3418 26.4121V31H55.6172V18.1504H58.3418V24.0303C58.5234 23.7783 58.7021 23.5264 58.8779 23.2744C59.0537 23.0225 59.2324 22.7705 59.4141 22.5186L62.8945 18.1504H65.918L61.4355 23.8369L65.9531 31ZM72.9404 20.9893C73.9893 20.9893 74.833 21.2764 75.4717 21.8506C76.1104 22.4189 76.4297 23.333 76.4297 24.5928V31H73.749V25.2607C73.749 24.5576 73.6201 24.0273 73.3623 23.6699C73.1104 23.3125 72.7119 23.1338 72.167 23.1338C71.3467 23.1338 70.7871 23.4121 70.4883 23.9688C70.1895 24.5254 70.04 25.3281 70.04 26.377V31H67.3594V21.1738H69.4072L69.7676 22.4307H69.917C70.1279 22.0908 70.3887 21.8154 70.6992 21.6045C71.0156 21.3936 71.3643 21.2383 71.7451 21.1387C72.1318 21.0391 72.5303 20.9893 72.9404 20.9893ZM88.1191 26.0693C88.1191 26.8896 88.0078 27.6162 87.7852 28.249C87.5684 28.8818 87.249 29.418 86.8271 29.8574C86.4111 30.291 85.9072 30.6191 85.3154 30.8418C84.7295 31.0645 84.0674 31.1758 83.3291 31.1758C82.6377 31.1758 82.002 31.0645 81.4219 30.8418C80.8477 30.6191 80.3467 30.291 79.9189 29.8574C79.4971 29.418 79.1689 28.8818 78.9346 28.249C78.7061 27.6162 78.5918 26.8896 78.5918 26.0693C78.5918 24.9795 78.7852 24.0566 79.1719 23.3008C79.5586 22.5449 80.1094 21.9707 80.8242 21.5781C81.5391 21.1855 82.3916 20.9893 83.3818 20.9893C84.3018 20.9893 85.1162 21.1855 85.8252 21.5781C86.54 21.9707 87.0996 22.5449 87.5039 23.3008C87.9141 24.0566 88.1191 24.9795 88.1191 26.0693ZM81.3252 26.0693C81.3252 26.7139 81.3955 27.2559 81.5361 27.6953C81.6768 28.1348 81.8965 28.4658 82.1953 28.6885C82.4941 28.9111 82.8838 29.0225 83.3643 29.0225C83.8389 29.0225 84.2227 28.9111 84.5156 28.6885C84.8145 28.4658 85.0312 28.1348 85.166 27.6953C85.3066 27.2559 85.377 26.7139 85.377 26.0693C85.377 25.4189 85.3066 24.8799 85.166 24.4521C85.0312 24.0186 84.8145 23.6934 84.5156 23.4766C84.2168 23.2598 83.8271 23.1514 83.3467 23.1514C82.6377 23.1514 82.1221 23.3945 81.7998 23.8809C81.4834 24.3672 81.3252 25.0967 81.3252 26.0693ZM98.4111 31L97.6553 27.5635C97.6143 27.3584 97.5469 27.0566 97.4531 26.6582C97.3594 26.2539 97.2568 25.8232 97.1455 25.3662C97.04 24.9033 96.9404 24.4756 96.8467 24.083C96.7588 23.6904 96.6943 23.4033 96.6533 23.2217H96.5742C96.5332 23.4033 96.4688 23.6904 96.3809 24.083C96.293 24.4756 96.1934 24.9033 96.082 25.3662C95.9766 25.8291 95.877 26.2656 95.7832 26.6758C95.6895 27.0801 95.6191 27.3877 95.5723 27.5986L94.7812 31H91.8984L89.1035 21.1738H91.7754L92.9092 25.5244C92.9854 25.8291 93.0586 26.1924 93.1289 26.6143C93.1992 27.0303 93.2607 27.4346 93.3135 27.8271C93.3721 28.2139 93.416 28.5215 93.4453 28.75H93.5156C93.5273 28.5801 93.5508 28.3545 93.5859 28.0732C93.627 27.792 93.6709 27.502 93.7178 27.2031C93.7705 26.8984 93.8174 26.626 93.8584 26.3857C93.9053 26.1396 93.9404 25.9727 93.9639 25.8848L95.1768 21.1738H98.1299L99.2812 25.8848C99.3223 26.0547 99.375 26.3242 99.4395 26.6934C99.5098 27.0625 99.5713 27.4434 99.624 27.8359C99.6768 28.2227 99.7061 28.5273 99.7119 28.75H99.7822C99.8057 28.5508 99.8467 28.2549 99.9053 27.8623C99.9639 27.4697 100.031 27.0596 100.107 26.6318C100.189 26.1982 100.271 25.8291 100.354 25.5244L101.531 21.1738H104.159L101.329 31H98.4111ZM114.337 31H104.774V29.2334L110.936 20.4004H104.941V18.1504H114.17V19.9082L108.018 28.75H114.337V31ZM125.104 26.0693C125.104 26.8896 124.992 27.6162 124.77 28.249C124.553 28.8818 124.233 29.418 123.812 29.8574C123.396 30.291 122.892 30.6191 122.3 30.8418C121.714 31.0645 121.052 31.1758 120.313 31.1758C119.622 31.1758 118.986 31.0645 118.406 30.8418C117.832 30.6191 117.331 30.291 116.903 29.8574C116.481 29.418 116.153 28.8818 115.919 28.249C115.69 27.6162 115.576 26.8896 115.576 26.0693C115.576 24.9795 115.77 24.0566 116.156 23.3008C116.543 22.5449 117.094 21.9707 117.809 21.5781C118.523 21.1855 119.376 20.9893 120.366 20.9893C121.286 20.9893 122.101 21.1855 122.81 21.5781C123.524 21.9707 124.084 22.5449 124.488 23.3008C124.898 24.0566 125.104 24.9795 125.104 26.0693ZM118.31 26.0693C118.31 26.7139 118.38 27.2559 118.521 27.6953C118.661 28.1348 118.881 28.4658 119.18 28.6885C119.479 28.9111 119.868 29.0225 120.349 29.0225C120.823 29.0225 121.207 28.9111 121.5 28.6885C121.799 28.4658 122.016 28.1348 122.15 27.6953C122.291 27.2559 122.361 26.7139 122.361 26.0693C122.361 25.4189 122.291 24.8799 122.15 24.4521C122.016 24.0186 121.799 23.6934 121.5 23.4766C121.201 23.2598 120.812 23.1514 120.331 23.1514C119.622 23.1514 119.106 23.3945 118.784 23.8809C118.468 24.3672 118.31 25.0967 118.31 26.0693ZM132.899 20.9893C133.948 20.9893 134.792 21.2764 135.431 21.8506C136.069 22.4189 136.389 23.333 136.389 24.5928V31H133.708V25.2607C133.708 24.5576 133.579 24.0273 133.321 23.6699C133.069 23.3125 132.671 23.1338 132.126 23.1338C131.306 23.1338 130.746 23.4121 130.447 23.9688C130.148 24.5254 129.999 25.3281 129.999 26.377V31H127.318V21.1738H129.366L129.727 22.4307H129.876C130.087 22.0908 130.348 21.8154 130.658 21.6045C130.975 21.3936 131.323 21.2383 131.704 21.1387C132.091 21.0391 132.489 20.9893 132.899 20.9893ZM143.2 20.9893C144.108 20.9893 144.891 21.165 145.547 21.5166C146.203 21.8623 146.71 22.3662 147.067 23.0283C147.425 23.6904 147.604 24.499 147.604 25.4541V26.7549H141.267C141.296 27.5107 141.521 28.1055 141.943 28.5391C142.371 28.9668 142.963 29.1807 143.719 29.1807C144.346 29.1807 144.92 29.1162 145.441 28.9873C145.963 28.8584 146.499 28.665 147.05 28.4072V30.4814C146.563 30.7217 146.054 30.8975 145.521 31.0088C144.993 31.1201 144.352 31.1758 143.596 31.1758C142.611 31.1758 141.738 30.9941 140.977 30.6309C140.221 30.2676 139.626 29.7139 139.192 28.9697C138.765 28.2256 138.551 27.2881 138.551 26.1572C138.551 25.0088 138.744 24.0537 139.131 23.292C139.523 22.5244 140.068 21.9502 140.766 21.5693C141.463 21.1826 142.274 20.9893 143.2 20.9893ZM143.218 22.8965C142.696 22.8965 142.263 23.0635 141.917 23.3975C141.577 23.7314 141.381 24.2559 141.328 24.9707H145.09C145.084 24.5723 145.011 24.2178 144.87 23.9072C144.735 23.5967 144.53 23.3506 144.255 23.1689C143.985 22.9873 143.64 22.8965 143.218 22.8965Z" fill="black"/>
<defs>
<clipPath id="clip0_6514_4058">
<rect width="36.2398" height="36.2398" fill="white" transform="translate(50 19.3732) rotate(122.316)"/>
</clipPath>
<clipPath id="clip1_6514_4058">
<rect width="6.03996" height="6.03996" fill="white" transform="translate(18.1199 16.6097)"/>
</clipPath>
<clipPath id="clip2_6514_4058">
<rect width="6.03996" height="6.03996" fill="white" transform="translate(24.1598 15.0997)"/>
</clipPath>
<clipPath id="clip3_6514_4058">
<rect width="6.03996" height="6.03996" fill="white" transform="translate(22.6499 21.1398)"/>
</clipPath>
</defs>
</svg>
