<svg width="100" height="100" viewBox="0 0 100 100" fill="none" xmlns="http://www.w3.org/2000/svg">
<g clip-path="url(#clip0_6512_2572)">
<path d="M84.7547 61.6049C89.2629 59.01 90.1562 48.8406 88.0664 44.435C87.1284 42.4679 85.9613 41.8268 85.3241 41.4237L51.2327 19.859L15.1562 37.2932L14.6884 44.5671L47.8892 65.5685L83.5104 46.7701C84.5021 49.6153 84.6796 54.7157 82.0134 56.7694L51.3187 74.1672L14.3327 50.7715L13.8615 58.0623L50.8467 81.4576L84.7547 61.6049Z" fill="black"/>
<path d="M39.6624 43.7894L37.0451 39.2595L39.6624 34.7295H44.8971L47.5144 39.2595L44.8971 43.7894H39.6624ZM40.2413 42.7828H44.3182L46.3441 39.2595L44.3182 35.7362H40.2413L38.2028 39.2595L40.2413 42.7828Z" fill="#FF004D"/>
<path d="M51.7424 40.7694L49.1251 36.2394L51.7424 31.7095H56.977L59.5943 36.2394L56.977 40.7694H51.7424ZM52.3212 39.7628H56.3982L58.4241 36.2394L56.3982 32.7161H52.3212L50.2827 36.2394L52.3212 39.7628Z" fill="white"/>
<path d="M48.7224 52.8495L46.105 48.3195L48.7224 43.7896H53.957L56.5743 48.3195L53.957 52.8495H48.7224Z" fill="white"/>
</g>
<defs>
<clipPath id="clip0_6512_2572">
<rect width="72.4796" height="72.4796" fill="white" transform="translate(100 38.7463) rotate(122.316)"/>
</clipPath>
</defs>
</svg>
